<svg xmlns="http://www.w3.org/2000/svg" viewBox="0 0 24 24"><defs><style>.a{fill:none;stroke:currentColor;stroke-linecap:round;stroke-linejoin:round;stroke-width:1.5px}</style></defs><title>lab-flask-experiment</title><line x1="6.726" x2="17.226" y1=".75" y2=".75" class="a"/><path d="M15.726,8.25V.75h-7.5v7.5L1.489,18.615A3,3,0,0,0,4,23.25H19.948a3,3,0,0,0,2.515-4.635Z" class="a"/><line x1="5.301" x2="18.651" y1="12.75" y2="12.75" class="a"/><line x1="14.226" x2="17.226" y1="17.25" y2="17.25" class="a"/><line x1="15.726" x2="15.726" y1="15.75" y2="18.75" class="a"/><path d="M6.726,19.125A.375.375,0,0,1,7.1,19.5" class="a"/><path d="M6.351,19.5a.375.375,0,0,1,.375-.375" class="a"/><path d="M6.726,19.875a.375.375,0,0,1-.375-.375" class="a"/><path d="M7.1,19.5a.375.375,0,0,1-.375.375" class="a"/><path d="M9.726,16.125a.375.375,0,0,1,.375.375" class="a"/><path d="M9.351,16.5a.375.375,0,0,1,.375-.375" class="a"/><path d="M9.726,16.875a.375.375,0,0,1-.375-.375" class="a"/><path d="M10.1,16.5a.375.375,0,0,1-.375.375" class="a"/><line x1="15.726" x2="12.726" y1="3.75" y2="3.75" class="a"/><line x1="15.726" x2="12.726" y1="6.75" y2="6.75" class="a"/></svg>